<svg width="288" height="72" xmlns="http://www.w3.org/2000/svg">
  <!-- 男孩角色 - 4帧动画 -->
  <!-- Frame 1 -->
  <g id="boy-frame1">
    <!-- 头发 -->
    <rect x="28" y="6" width="20" height="6" fill="#4A90E2"/>
    <rect x="26" y="12" width="6" height="6" fill="#4A90E2"/>
    <rect x="42" y="12" width="6" height="6" fill="#4A90E2"/>
    <!-- 头部 -->
    <rect x="28" y="12" width="16" height="18" fill="#FFD4A3"/>
    <!-- 眼睛 -->
    <rect x="30" y="18" width="4" height="4" fill="#000"/>
    <rect x="38" y="18" width="4" height="4" fill="#000"/>
    <!-- 身体 -->
    <rect x="28" y="30" width="16" height="18" fill="#4ECDC4"/>
    <!-- 左臂 + 法杖 -->
    <rect x="22" y="30" width="6" height="12" fill="#FFD4A3"/>
    <rect x="16" y="18" width="6" height="36" fill="#8B4513"/>
    <rect x="14" y="16" width="10" height="6" fill="#FFD700"/>
    <rect x="16" y="22" width="6" height="6" fill="#FFD700"/>
    <!-- 右臂 -->
    <rect x="44" y="30" width="6" height="12" fill="#FFD4A3"/>
    <!-- 腿部 -->
    <rect x="28" y="48" width="8" height="18" fill="#2C3E50"/>
    <rect x="36" y="48" width="8" height="18" fill="#2C3E50"/>
    <!-- 鞋子 -->
    <rect x="28" y="66" width="8" height="6" fill="#8B4513"/>
    <rect x="36" y="66" width="8" height="6" fill="#8B4513"/>
  </g>
  
  <!-- Frame 2 -->
  <g id="boy-frame2" transform="translate(72,0)">
    <rect x="28" y="6" width="20" height="6" fill="#4A90E2"/>
    <rect x="26" y="12" width="6" height="6" fill="#4A90E2"/>
    <rect x="42" y="12" width="6" height="6" fill="#4A90E2"/>
    <rect x="28" y="12" width="16" height="18" fill="#FFD4A3"/>
    <rect x="30" y="18" width="4" height="4" fill="#000"/>
    <rect x="38" y="18" width="4" height="4" fill="#000"/>
    <rect x="28" y="30" width="16" height="18" fill="#4ECDC4"/>
    <rect x="22" y="30" width="6" height="12" fill="#FFD4A3"/>
    <rect x="16" y="20" width="6" height="36" fill="#8B4513"/>
    <rect x="14" y="18" width="10" height="6" fill="#FFD700"/>
    <rect x="16" y="24" width="6" height="6" fill="#FFD700"/>
    <rect x="44" y="30" width="6" height="12" fill="#FFD4A3"/>
    <rect x="28" y="48" width="8" height="20" fill="#2C3E50"/>
    <rect x="36" y="48" width="8" height="16" fill="#2C3E50"/>
    <rect x="28" y="68" width="8" height="4" fill="#8B4513"/>
    <rect x="36" y="64" width="8" height="6" fill="#8B4513"/>
  </g>
  
  <!-- Frame 3 -->
  <g id="boy-frame3" transform="translate(144,0)">
    <rect x="28" y="6" width="20" height="6" fill="#4A90E2"/>
    <rect x="26" y="12" width="6" height="6" fill="#4A90E2"/>
    <rect x="42" y="12" width="6" height="6" fill="#4A90E2"/>
    <rect x="28" y="12" width="16" height="18" fill="#FFD4A3"/>
    <rect x="30" y="18" width="4" height="4" fill="#000"/>
    <rect x="38" y="18" width="4" height="4" fill="#000"/>
    <rect x="28" y="30" width="16" height="18" fill="#4ECDC4"/>
    <rect x="22" y="30" width="6" height="12" fill="#FFD4A3"/>
    <rect x="16" y="18" width="6" height="36" fill="#8B4513"/>
    <rect x="14" y="16" width="10" height="6" fill="#FFD700"/>
    <rect x="16" y="22" width="6" height="6" fill="#FFD700"/>
    <rect x="44" y="30" width="6" height="12" fill="#FFD4A3"/>
    <rect x="28" y="48" width="8" height="18" fill="#2C3E50"/>
    <rect x="36" y="48" width="8" height="18" fill="#2C3E50"/>
    <rect x="28" y="66" width="8" height="6" fill="#8B4513"/>
    <rect x="36" y="66" width="8" height="6" fill="#8B4513"/>
  </g>
  
  <!-- Frame 4 -->
  <g id="boy-frame4" transform="translate(216,0)">
    <rect x="28" y="6" width="20" height="6" fill="#4A90E2"/>
    <rect x="26" y="12" width="6" height="6" fill="#4A90E2"/>
    <rect x="42" y="12" width="6" height="6" fill="#4A90E2"/>
    <rect x="28" y="12" width="16" height="18" fill="#FFD4A3"/>
    <rect x="30" y="18" width="4" height="4" fill="#000"/>
    <rect x="38" y="18" width="4" height="4" fill="#000"/>
    <rect x="28" y="30" width="16" height="18" fill="#4ECDC4"/>
    <rect x="22" y="30" width="6" height="12" fill="#FFD4A3"/>
    <rect x="16" y="16" width="6" height="36" fill="#8B4513"/>
    <rect x="14" y="14" width="10" height="6" fill="#FFD700"/>
    <rect x="16" y="20" width="6" height="6" fill="#FFD700"/>
    <rect x="44" y="30" width="6" height="12" fill="#FFD4A3"/>
    <rect x="28" y="48" width="8" height="16" fill="#2C3E50"/>
    <rect x="36" y="48" width="8" height="20" fill="#2C3E50"/>
    <rect x="28" y="64" width="8" height="6" fill="#8B4513"/>
    <rect x="36" y="68" width="8" height="4" fill="#8B4513"/>
  </g>
</svg>
