<svg width="288" height="72" xmlns="http://www.w3.org/2000/svg">
  <!-- 女孩角色 - 4帧动画 -->
  <!-- Frame 1 -->
  <g id="girl-frame1">
    <!-- 头发 -->
    <rect x="28" y="6" width="24" height="6" fill="#8B4513"/>
    <rect x="24" y="12" width="6" height="6" fill="#8B4513"/>
    <rect x="46" y="12" width="6" height="6" fill="#8B4513"/>
    <!-- 头部 -->
    <rect x="28" y="12" width="18" height="18" fill="#FFD4A3"/>
    <!-- 眼睛 -->
    <rect x="30" y="18" width="4" height="4" fill="#000"/>
    <rect x="40" y="18" width="4" height="4" fill="#000"/>
    <!-- 身体 -->
    <rect x="28" y="30" width="18" height="18" fill="#FF6B6B"/>
    <!-- 左臂 -->
    <rect x="22" y="30" width="6" height="12" fill="#FFD4A3"/>
    <!-- 右臂 + 剑 -->
    <rect x="46" y="30" width="6" height="12" fill="#FFD4A3"/>
    <rect x="52" y="24" width="6" height="24" fill="#C0C0C0"/>
    <rect x="52" y="22" width="6" height="2" fill="#8B4513"/>
    <!-- 腿部 -->
    <rect x="28" y="48" width="8" height="18" fill="#4A4A4A"/>
    <rect x="38" y="48" width="8" height="18" fill="#4A4A4A"/>
    <!-- 鞋子 -->
    <rect x="28" y="66" width="8" height="6" fill="#8B4513"/>
    <rect x="38" y="66" width="8" height="6" fill="#8B4513"/>
  </g>
  
  <!-- Frame 2 -->
  <g id="girl-frame2" transform="translate(72,0)">
    <rect x="28" y="6" width="24" height="6" fill="#8B4513"/>
    <rect x="24" y="12" width="6" height="6" fill="#8B4513"/>
    <rect x="46" y="12" width="6" height="6" fill="#8B4513"/>
    <rect x="28" y="12" width="18" height="18" fill="#FFD4A3"/>
    <rect x="30" y="18" width="4" height="4" fill="#000"/>
    <rect x="40" y="18" width="4" height="4" fill="#000"/>
    <rect x="28" y="30" width="18" height="18" fill="#FF6B6B"/>
    <rect x="22" y="30" width="6" height="12" fill="#FFD4A3"/>
    <rect x="46" y="30" width="6" height="12" fill="#FFD4A3"/>
    <rect x="52" y="26" width="6" height="24" fill="#C0C0C0"/>
    <rect x="52" y="24" width="6" height="2" fill="#8B4513"/>
    <rect x="28" y="48" width="8" height="20" fill="#4A4A4A"/>
    <rect x="38" y="48" width="8" height="16" fill="#4A4A4A"/>
    <rect x="28" y="68" width="8" height="4" fill="#8B4513"/>
    <rect x="38" y="64" width="8" height="6" fill="#8B4513"/>
  </g>
  
  <!-- Frame 3 -->
  <g id="girl-frame3" transform="translate(144,0)">
    <rect x="28" y="6" width="24" height="6" fill="#8B4513"/>
    <rect x="24" y="12" width="6" height="6" fill="#8B4513"/>
    <rect x="46" y="12" width="6" height="6" fill="#8B4513"/>
    <rect x="28" y="12" width="18" height="18" fill="#FFD4A3"/>
    <rect x="30" y="18" width="4" height="4" fill="#000"/>
    <rect x="40" y="18" width="4" height="4" fill="#000"/>
    <rect x="28" y="30" width="18" height="18" fill="#FF6B6B"/>
    <rect x="22" y="30" width="6" height="12" fill="#FFD4A3"/>
    <rect x="46" y="30" width="6" height="12" fill="#FFD4A3"/>
    <rect x="52" y="24" width="6" height="24" fill="#C0C0C0"/>
    <rect x="52" y="22" width="6" height="2" fill="#8B4513"/>
    <rect x="28" y="48" width="8" height="18" fill="#4A4A4A"/>
    <rect x="38" y="48" width="8" height="18" fill="#4A4A4A"/>
    <rect x="28" y="66" width="8" height="6" fill="#8B4513"/>
    <rect x="38" y="66" width="8" height="6" fill="#8B4513"/>
  </g>
  
  <!-- Frame 4 -->
  <g id="girl-frame4" transform="translate(216,0)">
    <rect x="28" y="6" width="24" height="6" fill="#8B4513"/>
    <rect x="24" y="12" width="6" height="6" fill="#8B4513"/>
    <rect x="46" y="12" width="6" height="6" fill="#8B4513"/>
    <rect x="28" y="12" width="18" height="18" fill="#FFD4A3"/>
    <rect x="30" y="18" width="4" height="4" fill="#000"/>
    <rect x="40" y="18" width="4" height="4" fill="#000"/>
    <rect x="28" y="30" width="18" height="18" fill="#FF6B6B"/>
    <rect x="22" y="30" width="6" height="12" fill="#FFD4A3"/>
    <rect x="46" y="30" width="6" height="12" fill="#FFD4A3"/>
    <rect x="52" y="22" width="6" height="24" fill="#C0C0C0"/>
    <rect x="52" y="20" width="6" height="2" fill="#8B4513"/>
    <rect x="28" y="48" width="8" height="16" fill="#4A4A4A"/>
    <rect x="38" y="48" width="8" height="20" fill="#4A4A4A"/>
    <rect x="28" y="64" width="8" height="6" fill="#8B4513"/>
    <rect x="38" y="68" width="8" height="4" fill="#8B4513"/>
  </g>
</svg>
