<svg width="320" height="48" viewBox="0 0 320 48" xmlns="http://www.w3.org/2000/svg">
  <!-- 顺滑弯曲的像素小河 -->
  
  <!-- 河岸上边缘 - 平滑过渡 -->
  <rect x="0" y="18" width="16" height="4" fill="#2F4F4F"/>
  <rect x="16" y="17" width="16" height="4" fill="#2F4F4F"/>
  <rect x="32" y="16" width="16" height="4" fill="#2F4F4F"/>
  <rect x="48" y="15" width="16" height="4" fill="#2F4F4F"/>
  <rect x="64" y="14" width="16" height="4" fill="#2F4F4F"/>
  <rect x="80" y="14" width="16" height="4" fill="#2F4F4F"/>
  <rect x="96" y="15" width="16" height="4" fill="#2F4F4F"/>
  <rect x="112" y="16" width="16" height="4" fill="#2F4F4F"/>
  <rect x="128" y="17" width="16" height="4" fill="#2F4F4F"/>
  <rect x="144" y="18" width="16" height="4" fill="#2F4F4F"/>
  <rect x="160" y="19" width="16" height="4" fill="#2F4F4F"/>
  <rect x="176" y="19" width="16" height="4" fill="#2F4F4F"/>
  <rect x="192" y="18" width="16" height="4" fill="#2F4F4F"/>
  <rect x="208" y="17" width="16" height="4" fill="#2F4F4F"/>
  <rect x="224" y="16" width="16" height="4" fill="#2F4F4F"/>
  <rect x="240" y="15" width="16" height="4" fill="#2F4F4F"/>
  <rect x="256" y="14" width="16" height="4" fill="#2F4F4F"/>
  <rect x="272" y="14" width="16" height="4" fill="#2F4F4F"/>
  <rect x="288" y="15" width="16" height="4" fill="#2F4F4F"/>
  <rect x="304" y="16" width="16" height="4" fill="#2F4F4F"/>
  
  <!-- 河流主体 - 平滑S形曲线, 10px宽 -->
  <rect x="0" y="22" width="16" height="10" fill="#4682B4"/>
  <rect x="16" y="21" width="16" height="10" fill="#4682B4"/>
  <rect x="32" y="20" width="16" height="10" fill="#4682B4"/>
  <rect x="48" y="19" width="16" height="10" fill="#4682B4"/>
  <rect x="64" y="18" width="16" height="10" fill="#4682B4"/>
  <rect x="80" y="18" width="16" height="10" fill="#4682B4"/>
  <rect x="96" y="19" width="16" height="10" fill="#4682B4"/>
  <rect x="112" y="20" width="16" height="10" fill="#4682B4"/>
  <rect x="128" y="21" width="16" height="10" fill="#4682B4"/>
  <rect x="144" y="22" width="16" height="10" fill="#4682B4"/>
  <rect x="160" y="23" width="16" height="10" fill="#4682B4"/>
  <rect x="176" y="23" width="16" height="10" fill="#4682B4"/>
  <rect x="192" y="22" width="16" height="10" fill="#4682B4"/>
  <rect x="208" y="21" width="16" height="10" fill="#4682B4"/>
  <rect x="224" y="20" width="16" height="10" fill="#4682B4"/>
  <rect x="240" y="19" width="16" height="10" fill="#4682B4"/>
  <rect x="256" y="18" width="16" height="10" fill="#4682B4"/>
  <rect x="272" y="18" width="16" height="10" fill="#4682B4"/>
  <rect x="288" y="19" width="16" height="10" fill="#4682B4"/>
  <rect x="304" y="20" width="16" height="10" fill="#4682B4"/>
  
  <!-- 河岸下边缘 - 平滑过渡 -->
  <rect x="0" y="32" width="16" height="4" fill="#2F4F4F"/>
  <rect x="16" y="31" width="16" height="4" fill="#2F4F4F"/>
  <rect x="32" y="30" width="16" height="4" fill="#2F4F4F"/>
  <rect x="48" y="29" width="16" height="4" fill="#2F4F4F"/>
  <rect x="64" y="28" width="16" height="4" fill="#2F4F4F"/>
  <rect x="80" y="28" width="16" height="4" fill="#2F4F4F"/>
  <rect x="96" y="29" width="16" height="4" fill="#2F4F4F"/>
  <rect x="112" y="30" width="16" height="4" fill="#2F4F4F"/>
  <rect x="128" y="31" width="16" height="4" fill="#2F4F4F"/>
  <rect x="144" y="32" width="16" height="4" fill="#2F4F4F"/>
  <rect x="160" y="33" width="16" height="4" fill="#2F4F4F"/>
  <rect x="176" y="33" width="16" height="4" fill="#2F4F4F"/>
  <rect x="192" y="32" width="16" height="4" fill="#2F4F4F"/>
  <rect x="208" y="31" width="16" height="4" fill="#2F4F4F"/>
  <rect x="224" y="30" width="16" height="4" fill="#2F4F4F"/>
  <rect x="240" y="29" width="16" height="4" fill="#2F4F4F"/>
  <rect x="256" y="28" width="16" height="4" fill="#2F4F4F"/>
  <rect x="272" y="28" width="16" height="4" fill="#2F4F4F"/>
  <rect x="288" y="29" width="16" height="4" fill="#2F4F4F"/>
  <rect x="304" y="30" width="16" height="4" fill="#2F4F4F"/>
  
  <!-- 水波高光 -->
  <rect x="8" y="24" width="4" height="2" fill="#87CEEB"/>
  <rect x="56" y="21" width="4" height="2" fill="#87CEEB"/>
  <rect x="104" y="21" width="4" height="2" fill="#87CEEB"/>
  <rect x="152" y="24" width="4" height="2" fill="#87CEEB"/>
  <rect x="200" y="23" width="4" height="2" fill="#87CEEB"/>
  <rect x="248" y="20" width="4" height="2" fill="#87CEEB"/>
  <rect x="296" y="21" width="4" height="2" fill="#87CEEB"/>
  
  <!-- 水花点缀 -->
  <rect x="24" y="23" width="2" height="2" fill="#B0E0E6"/>
  <rect x="72" y="20" width="2" height="2" fill="#B0E0E6"/>
  <rect x="136" y="23" width="2" height="2" fill="#B0E0E6"/>
  <rect x="184" y="25" width="2" height="2" fill="#B0E0E6"/>
  <rect x="232" y="22" width="2" height="2" fill="#B0E0E6"/>
  <rect x="280" y="20" width="2" height="2" fill="#B0E0E6"/>
</svg>
