<svg width="300" height="400" viewBox="0 0 300 400" xmlns="http://www.w3.org/2000/svg">
  <!-- 远景山脉 -->
  <rect x="180" y="105" width="120" height="25" fill="#A0826D"/>
  <rect x="200" y="95" width="90" height="20" fill="#8B7355"/>
  <rect x="220" y="85" width="60" height="15" fill="#A0826D"/>
  
  <!-- 像素矮松 -->
  <rect x="245" y="125" width="15" height="28" fill="#228B22"/>
  <rect x="238" y="120" width="30" height="10" fill="#228B22"/>
  <rect x="241" y="115" width="24" height="10" fill="#228B22"/>
  <rect x="243" y="110" width="20" height="10" fill="#228B22"/>
  
  <rect x="225" y="130" width="15" height="25" fill="#228B22"/>
  <rect x="218" y="125" width="30" height="10" fill="#228B22"/>
  <rect x="221" y="120" width="24" height="10" fill="#228B22"/>
  
  <!-- 灌木 -->
  <rect x="205" y="140" width="20" height="12" fill="#3CB371"/>
  <rect x="202" y="135" width="26" height="10" fill="#228B22"/>
  <rect x="208" y="130" width="16" height="10" fill="#3CB371"/>
  
  <!-- 浅黄像素草地 -->
  <rect x="200" y="148" width="15" height="5" fill="#F0E68C"/>
  <rect x="203" y="146" width="10" height="5" fill="#EEE8AA"/>
  
  <!-- 右侧城堡主体 - 更复杂的城堡 -->
  <!-- 主塔楼（差异化：圆顶塔楼+拱形窗） -->
  <rect x="170" y="155" width="60" height="95" fill="#D3D3D3"/> <!-- 主楼 -->
  <rect x="165" y="175" width="70" height="75" fill="#D3D3D3"/> <!-- 基座 -->
  <rect x="175" y="145" width="50" height="15" fill="#8B4513"/> <!-- 屋顶 -->
  <rect x="155" y="185" width="15" height="65" fill="#D3D3D3"/> <!-- 左塔 -->
  <rect x="225" y="180" width="15" height="70" fill="#D3D3D3"/> <!-- 右塔 -->
  <rect x="190" y="115" width="20" height="30" fill="#D3D3D3"/> <!-- 顶塔 -->
  
  <!-- 圆顶塔楼 -->
  <rect x="158" y="180" width="9" height="5" fill="#CD5C5C"/> <!-- 左塔顶 -->
  <rect x="228" y="175" width="9" height="5" fill="#CD5C5C"/> <!-- 右塔顶 -->
  <rect x="160" y="178" width="5" height="5" fill="#CD5C5C"/> <!-- 左塔圆顶 -->
  <rect x="230" y="173" width="5" height="5" fill="#CD5C5C"/> <!-- 右塔圆顶 -->
  <rect x="193" y="110" width="14" height="8" fill="#CD5C5C"/> <!-- 顶塔圆顶 -->
  
  <!-- 拱形窗 -->
  <rect x="180" y="185" width="8" height="10" fill="#4682B4"/>
  <rect x="205" y="185" width="8" height="10" fill="#4682B4"/>
  <rect x="160" y="205" width="6" height="8" fill="#4682B4"/>
  <rect x="230" y="200" width="6" height="8" fill="#4682B4"/>
  <rect x="195" y="125" width="10" height="12" fill="#4682B4"/> <!-- 顶塔窗 -->
  
  <!-- 窗户拱形顶部 -->
  <rect x="180" y="183" width="8" height="3" fill="#4682B4"/>
  <rect x="205" y="183" width="8" height="3" fill="#4682B4"/>
  <rect x="160" y="203" width="6" height="3" fill="#4682B4"/>
  <rect x="230" y="198" width="6" height="3" fill="#4682B4"/>
  <rect x="195" y="123" width="10" height="3" fill="#4682B4"/>
  
  <!-- 城堡装饰 -->
  <rect x="162" y="188" width="5" height="3" fill="#8B4513"/> <!-- 小窗 -->
  <rect x="232" y="188" width="5" height="3" fill="#8B4513"/>
  
  <!-- 城堡门廊 -->
  <rect x="185" y="235" width="30" height="18" fill="#696969"/>
  <rect x="187" y="240" width="26" height="12" fill="#A0522D"/> <!-- 门 -->
  
  <!-- 城堡旗帜 -->
  <rect x="200" y="110" width="1" height="10" fill="#000000"/> <!-- 旗杆 -->
  <rect x="201" y="105" width="12" height="8" fill="#4ECDC4"/> <!-- 旗帜 -->
  
  <!-- 城堡围墙 -->
  <rect x="150" y="235" width="90" height="10" fill="#D3D3D3"/>
  <rect x="150" y="225" width="10" height="10" fill="#D3D3D3"/> <!-- 墙垛 -->
  <rect x="170" y="225" width="10" height="10" fill="#D3D3D3"/>
  <rect x="190" y="225" width="10" height="10" fill="#D3D3D3"/>
  <rect x="210" y="225" width="10" height="10" fill="#D3D3D3"/>
  <rect x="230" y="225" width="10" height="10" fill="#D3D3D3"/>
  
  <!-- 城堡尖顶装饰 -->
  <rect x="160" y="183" width="5" height="3" fill="#FFD700"/> <!-- 左塔顶装饰 -->
  <rect x="230" y="178" width="5" height="3" fill="#FFD700"/> <!-- 右塔顶装饰 -->
  <rect x="195" y="108" width="10" height="3" fill="#FFD700"/> <!-- 顶塔顶装饰 -->
  
  <!-- 城堡庭院 -->
  <rect x="175" y="253" width="50" height="27" fill="#A0522D"/> <!-- 庭院 -->
  <rect x="185" y="258" width="8" height="8" fill="#3CB371"/> <!-- 庭院树 -->
  <rect x="200" y="268" width="6" height="6" fill="#FF6B6B"/> <!-- 庭院花 -->
  <rect x="210" y="260" width="6" height="6" fill="#98FB98"/> <!-- 庭院花2 -->
</svg>